<svg xmlns="http://www.w3.org/2000/svg" viewBox="0 0 512 512" width="512" height="512">
	<style>
		tspan { white-space:pre }
		.shp0 { fill: #ff0000 } 
	</style>
	<path id="Layer" class="shp0" d="M331.3,308.7l-52.7,-52.7l52.7,-52.7c6.2,-6.2 6.2,-16.4 0,-22.6c-6.2,-6.2 -16.4,-6.2 -22.6,0l-52.7,52.7l-52.7,-52.7c-6.2,-6.2 -15.6,-7.1 -22.6,0c-7.1,7.1 -6,16.6 0,22.6l52.7,52.7l-52.7,52.7c-6.7,6.7 -6.4,16.3 0,22.6c6.4,6.4 16.4,6.2 22.6,0l52.7,-52.7l52.7,52.7c6.2,6.2 16.4,6.2 22.6,0c6.3,-6.2 6.3,-16.4 0,-22.6z" />
	<path id="Layer" class="shp0" d="M256,76c48.1,0 93.3,18.7 127.3,52.7c34,34 52.7,79.2 52.7,127.3c0,48.1 -18.7,93.3 -52.7,127.3c-34,34 -79.2,52.7 -127.3,52.7c-48.1,0 -93.3,-18.7 -127.3,-52.7c-34,-34 -52.7,-79.2 -52.7,-127.3c0,-48.1 18.7,-93.3 52.7,-127.3c34,-34 79.2,-52.7 127.3,-52.7zM256,48c-114.9,0 -208,93.1 -208,208c0,114.9 93.1,208 208,208c114.9,0 208,-93.1 208,-208c0,-114.9 -93.1,-208 -208,-208z" />
</svg>